<?xml version="1.0" encoding="iso-8859-1"?>
<!-- Generator: Adobe Illustrator 25.2.0, SVG Export Plug-In . SVG Version: 6.00 Build 0)  -->
<svg version="1.1" xmlns="http://www.w3.org/2000/svg" xmlns:xlink="http://www.w3.org/1999/xlink" x="0px" y="0px"
	 viewBox="0 0 100 100" style="enable-background:new 0 0 100 100;" xml:space="preserve">
<g id="Layer_1">
</g>
<g id="&#x421;&#x43B;&#x43E;&#x439;_1">
	<g>
		<path style="fill:#C7EDE6;" d="M87.215,56.71C88.35,54.555,89,52.105,89,49.5c0-6.621-4.159-12.257-10.001-14.478
			C78.999,35.015,79,35.008,79,35c0-11.598-9.402-21-21-21c-9.784,0-17.981,6.701-20.313,15.757C36.211,29.272,34.638,29,33,29
			c-7.692,0-14.023,5.793-14.89,13.252C12.906,43.353,9,47.969,9,53.5C9,59.851,14.149,65,20.5,65c0.177,0,0.352-0.012,0.526-0.022
			C21.022,65.153,21,65.324,21,65.5C21,76.822,30.178,86,41.5,86c6.437,0,12.175-2.972,15.934-7.614C59.612,80.611,62.64,82,66,82
			c4.65,0,8.674-2.65,10.666-6.518C77.718,75.817,78.837,76,80,76c6.075,0,11-4.925,11-11C91,61.689,89.53,58.727,87.215,56.71z"/>
	</g>
	<g>
		<g>
			<path style="fill:#FDFCEF;" d="M88.875,50.5c0,0,3.64,0,6.125,0s4.5-2.015,4.5-4.5c0-2.333-1.782-4.229-4.055-4.455
				C95.467,41.364,95.5,41.187,95.5,41c0-2.485-2.015-4.5-4.5-4.5c-1.438,0-2.703,0.686-3.527,1.736
				C87.333,35.6,85.171,33.5,82.5,33.5c-2.761,0-5,2.239-5,5c0,0.446,0.077,0.87,0.187,1.282C77.045,39.005,76.086,38.5,75,38.5
				c-1.781,0-3.234,1.335-3.455,3.055C71.364,41.533,71.187,41.5,71,41.5c-2.485,0-4.5,2.015-4.5,4.5s2.015,4.5,4.5,4.5s9.5,0,9.5,0
				h5.375V51h3V50.5z"/>
		</g>
		<g>
			<path style="fill:#472B29;" d="M82.5,33c-3.033,0-5.5,2.467-5.5,5.5c0,0.016,0,0.031,0,0.047C76.398,38.192,75.71,38,75,38
				c-1.831,0-3.411,1.261-3.858,3.005C71.095,41.002,71.048,41,71,41c-2.757,0-5,2.243-5,5s2.243,5,5,5h14.875
				c0.276,0,0.5-0.224,0.5-0.5s-0.224-0.5-0.5-0.5H71c-2.206,0-4-1.794-4-4s1.794-4,4-4c0.117,0,0.23,0.017,0.343,0.032l0.141,0.019
				c0.021,0.003,0.041,0.004,0.062,0.004c0.246,0,0.462-0.185,0.495-0.437C72.232,40.125,73.504,39,75,39
				c0.885,0,1.723,0.401,2.301,1.1c0.098,0.118,0.241,0.182,0.386,0.182c0.078,0,0.156-0.018,0.228-0.056
				c0.209-0.107,0.314-0.346,0.254-0.573C78.054,39.218,78,38.852,78,38.5c0-2.481,2.019-4.5,4.5-4.5
				c2.381,0,4.347,1.872,4.474,4.263c0.011,0.208,0.15,0.387,0.349,0.45c0.05,0.016,0.101,0.024,0.152,0.024
				c0.15,0,0.296-0.069,0.392-0.192C88.638,37.563,89.779,37,91,37c2.206,0,4,1.794,4,4c0,0.117-0.017,0.23-0.032,0.343
				l-0.019,0.141c-0.016,0.134,0.022,0.268,0.106,0.373s0.207,0.172,0.34,0.185C97.451,42.247,99,43.949,99,46c0,2.206-1.794,4-4,4
				h-6.125c-0.276,0-0.5,0.224-0.5,0.5s0.224,0.5,0.5,0.5H95c2.757,0,5-2.243,5-5c0-2.397-1.689-4.413-4.003-4.877
				C95.999,41.082,96,41.041,96,41c0-2.757-2.243-5-5-5c-1.176,0-2.293,0.416-3.183,1.164C87.219,34.76,85.055,33,82.5,33L82.5,33z"
				/>
		</g>
		<g>
			<path style="fill:#472B29;" d="M81,40c-1.403,0-2.609,0.999-2.913,2.341C77.72,42.119,77.301,42,76.875,42
				c-1.202,0-2.198,0.897-2.353,2.068C74.319,44.022,74.126,44,73.938,44c-1.529,0-2.811,1.2-2.918,2.732
				C71.01,46.87,71.114,46.99,71.251,47c0.006,0,0.012,0,0.018,0c0.13,0,0.24-0.101,0.249-0.232
				c0.089-1.271,1.151-2.268,2.419-2.268c0.229,0,0.47,0.042,0.738,0.127c0.022,0.007,0.045,0.01,0.067,0.01
				c0.055,0,0.11-0.02,0.156-0.054C74.962,44.537,75,44.455,75,44.375c0-1.034,0.841-1.875,1.875-1.875
				c0.447,0,0.885,0.168,1.231,0.473c0.047,0.041,0.106,0.063,0.165,0.063c0.032,0,0.063-0.006,0.093-0.019
				c0.088-0.035,0.148-0.117,0.155-0.212C78.623,41.512,79.712,40.5,81,40.5c0.208,0,0.425,0.034,0.682,0.107
				c0.023,0.007,0.047,0.01,0.07,0.01c0.109,0,0.207-0.073,0.239-0.182c0.038-0.133-0.039-0.271-0.172-0.309
				C81.517,40.04,81.256,40,81,40L81,40z M94.883,41.5c-1.326,0-2.508,0.897-2.874,2.182c-0.038,0.133,0.039,0.271,0.172,0.309
				C92.205,43.997,92.228,44,92.25,44c0.109,0,0.209-0.072,0.24-0.182C92.795,42.748,93.779,42,94.883,42
				c0.117,0,0.23,0.014,0.342,0.029c0.012,0.002,0.023,0.003,0.035,0.003c0.121,0,0.229-0.092,0.246-0.217
				c0.019-0.137-0.077-0.263-0.214-0.281C95.158,41.516,95.022,41.5,94.883,41.5L94.883,41.5z"/>
		</g>
	</g>
	<g>
		<path style="fill:#FFFFFF;" d="M13.405,48H3.5C3.224,48,3,47.776,3,47.5S3.224,47,3.5,47h9.905c0.276,0,0.5,0.224,0.5,0.5
			S13.682,48,13.405,48z M16.5,48h-1c-0.276,0-0.5-0.224-0.5-0.5s0.224-0.5,0.5-0.5h1c0.276,0,0.5,0.224,0.5,0.5S16.777,48,16.5,48z
			 M21.491,50H12.5c-0.276,0-0.5-0.224-0.5-0.5s0.224-0.5,0.5-0.5h8.991c0.276,0,0.5,0.224,0.5,0.5S21.767,50,21.491,50z M10.5,50
			h-1C9.224,50,9,49.776,9,49.5S9.224,49,9.5,49h1c0.276,0,0.5,0.224,0.5,0.5S10.777,50,10.5,50z M7.5,50h-2
			C5.224,50,5,49.776,5,49.5S5.224,49,5.5,49h2C7.776,49,8,49.224,8,49.5S7.777,50,7.5,50z M13.5,52h-2c-0.276,0-0.5-0.224-0.5-0.5
			s0.224-0.5,0.5-0.5h2c0.276,0,0.5,0.224,0.5,0.5S13.776,52,13.5,52z M16.5,43c-0.177,0-0.823,0-1,0c-0.276,0-0.5,0.224-0.5,0.5
			s0.224,0.5,0.5,0.5c0.177,0,0.823,0,1,0c0.276,0,0.5-0.224,0.5-0.5S16.776,43,16.5,43z M16.5,45c-0.177,0-4.823,0-5,0
			c-0.276,0-0.5,0.224-0.5,0.5s0.224,0.5,0.5,0.5c0.177,0,4.823,0,5,0c0.276,0,0.5-0.224,0.5-0.5S16.776,45,16.5,45z M21.5,47
			c-0.177,0-2.823,0-3,0c-0.276,0-0.5,0.224-0.5,0.5s0.224,0.5,0.5,0.5c0.177,0,2.823,0,3,0c0.276,0,0.5-0.224,0.5-0.5
			S21.776,47,21.5,47z"/>
	</g>
	<g>
		<path style="fill:#FFFFFF;" d="M83.5,68h-10c-0.276,0-0.5-0.224-0.5-0.5s0.224-0.5,0.5-0.5h10c0.276,0,0.5,0.224,0.5,0.5
			S83.776,68,83.5,68z M87.5,68h-2c-0.276,0-0.5-0.224-0.5-0.5s0.224-0.5,0.5-0.5h2c0.276,0,0.5,0.224,0.5,0.5S87.776,68,87.5,68z
			 M92.5,70h-10c-0.276,0-0.5-0.224-0.5-0.5s0.224-0.5,0.5-0.5h10c0.276,0,0.5,0.224,0.5,0.5S92.777,70,92.5,70z M80.5,70h-1
			c-0.276,0-0.5-0.224-0.5-0.5s0.224-0.5,0.5-0.5h1c0.276,0,0.5,0.224,0.5,0.5S80.776,70,80.5,70z M77.375,70H75.5
			c-0.276,0-0.5-0.224-0.5-0.5s0.224-0.5,0.5-0.5h1.875c0.276,0,0.5,0.224,0.5,0.5S77.651,70,77.375,70z M86.5,66h-5
			c-0.276,0-0.5-0.224-0.5-0.5s0.224-0.5,0.5-0.5h5c0.276,0,0.5,0.224,0.5,0.5S86.777,66,86.5,66z M83.5,72h-2
			c-0.276,0-0.5-0.224-0.5-0.5s0.224-0.5,0.5-0.5h2c0.276,0,0.5,0.224,0.5,0.5S83.776,72,83.5,72z"/>
	</g>
	<g>
		<path style="fill:#78A0CF;" d="M79,54.64c0,4.76-3.87,8.63-8.63,8.63c-0.24,0-0.48-0.01-0.72-0.03h-8.83
			c-1.21,6.29-6.74,11.07-13.38,11.07c-3.83,0-7.3-1.58-9.78-4.14l3.67-3.67c1.54,1.61,3.71,2.62,6.11,2.62
			c4.65,0,8.43-3.78,8.43-8.44c0-4.66-3.78-8.45-8.43-8.45c-1.57,0-3.03,0.43-4.29,1.18l-2.66-4.45c2.03-1.22,4.41-1.92,6.95-1.92
			c6.62,0,12.14,4.74,13.37,11.01l9.21,0.01c0.11,0.01,0.23,0.02,0.35,0.02c1.89,0,3.44-1.54,3.44-3.44c0-1.89-1.55-3.44-3.44-3.44
			h-3.8v-6.21c0-7.22-5.88-13.1-13.1-13.1c-5.61,0-10.59,3.56-12.39,8.86l-0.93,2.74l-2.62-1.22c-1.02-0.47-2.19-0.72-3.37-0.72
			c-4.56,0-8.27,3.71-8.27,8.26c0,4.56,3.71,8.27,8.27,8.27h8.81c0.89-1.54,2.56-2.58,4.47-2.58c2.86,0,5.17,2.32,5.17,5.18
			c0,2.86-2.31,5.17-5.17,5.17c-1.92,0-3.59-1.04-4.48-2.58h-8.8c-7.42,0-13.46-6.03-13.46-13.46c0-7.42,6.04-13.45,13.46-13.45
			c1.02,0,2.03,0.11,3.01,0.33c3.08-6.06,9.34-9.99,16.3-9.99c10.08,0,18.29,8.2,18.29,18.29v1.13C75.86,46.79,79,50.36,79,54.64z"
			/>
	</g>
	<g>
		<circle style="fill:#6869AD;" cx="47.436" cy="60.677" r="4.564"/>
	</g>
	<g>
		<path style="fill:#472B29;" d="M47.44,75.011c-3.912,0-7.563-1.546-10.283-4.354c-0.266-0.274-0.262-0.712,0.008-0.982l3.67-3.67
			c0.133-0.133,0.339-0.19,0.503-0.205c0.188,0.002,0.368,0.08,0.498,0.217c1.482,1.55,3.473,2.403,5.604,2.403
			c4.262,0,7.73-3.472,7.73-7.74c0-4.272-3.468-7.749-7.73-7.749c-1.384,0-2.744,0.374-3.932,1.081
			c-0.33,0.197-0.76,0.089-0.959-0.242l-2.66-4.45c-0.198-0.332-0.09-0.761,0.241-0.959c2.199-1.322,4.727-2.021,7.31-2.021
			c6.636,0,12.406,4.597,13.935,11.011l8.646,0.01c0.151,0.011,0.25,0.02,0.349,0.02c1.511,0,2.74-1.229,2.74-2.74
			S71.881,51.9,70.37,51.9h-3.8c-0.387,0-0.7-0.313-0.7-0.7v-6.21c0-6.838-5.562-12.4-12.4-12.4c-5.311,0-10.023,3.37-11.727,8.385
			l-0.93,2.74c-0.064,0.188-0.205,0.341-0.388,0.419c-0.183,0.079-0.39,0.074-0.571-0.009l-2.62-1.221
			c-0.929-0.428-1.993-0.654-3.074-0.654c-4.174,0-7.57,3.392-7.57,7.561c0,4.174,3.396,7.569,7.57,7.569h8.422
			c1.084-1.601,2.909-2.58,4.857-2.58c3.237,0,5.87,2.638,5.87,5.88c0,3.236-2.633,5.87-5.87,5.87c-1.955,0-3.784-0.979-4.867-2.58
			H34.16C26.353,63.97,20,57.618,20,49.811c0-7.803,6.353-14.15,14.16-14.15c0.891,0,1.775,0.08,2.635,0.238
			C40.122,29.779,46.462,26,53.47,26c10.471,0,18.99,8.52,18.99,18.99v0.554c4.229,0.966,7.24,4.701,7.24,9.096
			c0,5.145-4.186,9.33-9.33,9.33c-0.259,0-0.518-0.011-0.777-0.032l-8.207,0.003C59.875,70.39,54.1,75.011,47.44,75.011z
			 M38.655,70.165c2.393,2.228,5.487,3.445,8.785,3.445c6.184,0,11.522-4.417,12.692-10.502c0.063-0.33,0.352-0.568,0.688-0.568
			h8.83c0.278,0.021,0.499,0.029,0.72,0.029c4.373,0,7.93-3.558,7.93-7.93c0-3.844-2.86-7.209-6.653-7.829
			c-0.339-0.055-0.587-0.348-0.587-0.69v-1.13c0-9.699-7.891-17.59-17.59-17.59c-6.657,0-12.664,3.681-15.676,9.606
			c-0.145,0.285-0.464,0.436-0.777,0.365c-0.924-0.207-1.885-0.312-2.856-0.312c-7.036,0-12.76,5.72-12.76,12.75
			c0,7.035,5.724,12.759,12.76,12.759h8.8c0.25,0,0.481,0.134,0.606,0.35c0.795,1.376,2.279,2.23,3.874,2.23
			c2.465,0,4.47-2.005,4.47-4.47c0-2.47-2.005-4.479-4.47-4.479c-1.588,0-3.069,0.854-3.864,2.23
			c-0.125,0.216-0.356,0.35-0.606,0.35h-8.81c-4.946,0-8.97-4.023-8.97-8.97c0-4.941,4.024-8.961,8.97-8.961
			c1.282,0,2.549,0.271,3.663,0.784l1.915,0.893l0.679-2.001c1.896-5.584,7.142-9.336,13.053-9.336c7.609,0,13.8,6.191,13.8,13.801
			v5.51h3.1c2.283,0,4.14,1.857,4.14,4.14c0,2.283-1.857,4.141-4.14,4.141c-0.142,0-0.283-0.011-0.412-0.022l-9.149-0.008
			c-0.334-0.001-0.622-0.237-0.686-0.565C58.936,52.133,53.602,47.74,47.44,47.74c-2.094,0-4.147,0.509-5.98,1.477l1.947,3.258
			c1.25-0.619,2.632-0.944,4.034-0.944c5.034,0,9.13,4.104,9.13,9.149c0,5.04-4.096,9.141-9.13,9.141
			c-2.278,0-4.419-0.825-6.102-2.338L38.655,70.165z"/>
	</g>
	<g>
		<g>
			<path style="fill:#FDFCEF;" d="M27.5,69.5c0,0,1.567,0,3.5,0s3.5-1.567,3.5-3.5c0-1.781-1.335-3.234-3.055-3.455
				C31.473,62.366,31.5,62.187,31.5,62c0-1.933-1.567-3.5-3.5-3.5c-1.032,0-1.95,0.455-2.59,1.165
				c-0.384-1.808-1.987-3.165-3.91-3.165c-2.209,0-4,1.791-4,4c0,0.191,0.03,0.374,0.056,0.558C17.128,60.714,16.592,60.5,16,60.5
				c-1.228,0-2.245,0.887-2.455,2.055C13.366,62.527,13.187,62.5,13,62.5c-1.933,0-3.5,1.567-3.5,3.5s1.567,3.5,3.5,3.5s7.5,0,7.5,0
				V70h7V69.5z"/>
		</g>
		<g>
			<path style="fill:#472B29;" d="M29.25,65C29.112,65,29,64.888,29,64.75c0-1.223,0.995-2.218,2.218-2.218
				c0.034,0.009,0.737-0.001,1.244,0.136c0.133,0.036,0.212,0.173,0.176,0.306c-0.036,0.134-0.173,0.213-0.306,0.176
				c-0.444-0.12-1.1-0.12-1.113-0.118c-0.948,0-1.719,0.771-1.719,1.718C29.5,64.888,29.388,65,29.25,65z M22.5,69
				c-0.276,0-0.5,0.224-0.5,0.5s0.224,0.5,0.5,0.5s0.5-0.224,0.5-0.5S22.776,69,22.5,69z"/>
		</g>
		<g>
			<path style="fill:#472B29;" d="M31,70h-3.5c-0.276,0-0.5-0.224-0.5-0.5s0.224-0.5,0.5-0.5H31c1.654,0,3-1.346,3-3
				c0-1.496-1.125-2.768-2.618-2.959c-0.134-0.018-0.255-0.088-0.336-0.196s-0.115-0.244-0.094-0.377C30.975,62.314,31,62.16,31,62
				c0-1.654-1.346-3-3-3c-0.85,0-1.638,0.355-2.219,1c-0.125,0.139-0.321,0.198-0.5,0.148c-0.182-0.049-0.321-0.195-0.36-0.379
				C24.58,58.165,23.141,57,21.5,57c-1.93,0-3.5,1.57-3.5,3.5c0,0.143,0.021,0.28,0.041,0.418c0.029,0.203-0.063,0.438-0.242,0.54
				s-0.396,0.118-0.556-0.01C16.878,61.155,16.449,61,16,61c-0.966,0-1.792,0.691-1.963,1.644c-0.048,0.267-0.296,0.446-0.569,0.405
				C13.314,63.025,13.16,63,13,63c-1.654,0-3,1.346-3,3s1.346,3,3,3h7.5c0.276,0,0.5,0.224,0.5,0.5S20.776,70,20.5,70H13
				c-2.206,0-4-1.794-4-4s1.794-4,4-4c0.059,0,0.116,0.002,0.174,0.006C13.588,60.82,14.711,60,16,60
				c0.349,0,0.689,0.061,1.011,0.18C17.176,57.847,19.126,56,21.5,56c1.831,0,3.466,1.127,4.153,2.774
				C26.333,58.276,27.155,58,28,58c2.206,0,4,1.794,4,4c0,0.048-0.001,0.095-0.004,0.142C33.739,62.59,35,64.169,35,66
				C35,68.206,33.206,70,31,70z"/>
		</g>
		<g>
			<path style="fill:#472B29;" d="M25.5,69c-0.159,0-0.841,0-1,0c-0.276,0-0.5,0.224-0.5,0.5s0.224,0.5,0.5,0.5c0.159,0,0.841,0,1,0
				c0.276,0,0.5-0.224,0.5-0.5S25.776,69,25.5,69z"/>
		</g>
	</g>
</g>
</svg>